# xmcd
#
# Track frame offsets:
#	150
#	11083
#	28540
#	39720
#	50270
#	61332
#	79341
#	99633
#	109190
#	122160
#	137553
#	147679
#	159916
#	177204
#	195188
#	209052
#	220273
#	232330
#	246796
#	265391
#	278399
#	293237
#
# Disc length: 4198 seconds
#
# Revision: 0
# Processed by: cddbd v1.4b41PL3 Copyright (c) Steve Scherf et al.
# Submitted via: audiograbber 1.80
#
DISCID=4b106416
DTITLE=Various Artist - COUNTRy Megamix
DYEAR=1900
DGENRE=
TTITLE0=Dolly Parton - Silver Threads And Golden Needles
TTITLE1=Alan Jackson  - Alan Jackson - I Don't Even Know Your Name
TTITLE2=Oak Ridge Boys - Oak Ridge Boys - Trying to Love Two Women
TTITLE3=Alan Jackson - Alan Jackson - Learned About Goodbye's
TTITLE4=Patty Loveless - Patty Loveless - Chains
TTITLE5=Alan Jackson - Alan Jackson - Chattahoochee
TTITLE6=Arlo Guthrie - Arlo Guthrie - City of New Orleans
TTITLE7=Alan Jackson - Alan Jackson - Kiss An Angle Good Morning
TTITLE8=Mark Collie - Mark Collie - Looks Aren't Everything
TTITLE9=Alan Jackson - Gone Country
TTITLE10=Bellamy Brothers - Pit Bulls and Chains Saws
TTITLE11=Clay Walker - You're Beginning To Get ToMe
TTITLE12=Alan Jackson - Livin' On Love
TTITLE13=Bellamy Brothers - Neon Cowboy
TTITLE14=Alan Jackson - Country Love Song
TTITLE15=Roger Miller - King Of The Road
TTITLE16=Alan Jackson - Little Bitty
TTITLE17=Tanya Tucker - What's Your Momma's Name
TTITLE18=Cory Morrow - Nashville Blues
TTITLE19=Alan Jackson - Hear Some Jones
TTITLE20=Billy Ray Cyrus - Busy Man
TTITLE21=LeAnn Rimes - How Do I Live
EXTD=
EXTT0=
EXTT1=
EXTT2=
EXTT3=
EXTT4=
EXTT5=
EXTT6=
EXTT7=
EXTT8=
EXTT9=
EXTT10=
EXTT11=
EXTT12=
EXTT13=
EXTT14=
EXTT15=
EXTT16=
EXTT17=
EXTT18=
EXTT19=
EXTT20=
EXTT21=
PLAYORDER=
